<svg id="Layer_2" data-name="Layer 2" xmlns="http://www.w3.org/2000/svg" viewBox="0 0 242.13 204.76"><defs><style>.cls-1{fill:#fff;stroke:#4f4f4f;stroke-miterlimit:10;stroke-width:9px;}.cls-2{fill:#4f4f4f;}</style></defs><title>lungs</title><path class="cls-1" d="M172.77,78c2.14-3.17,10.08-15,20.62-14.73,6,0.14,10.47,4.13,12.89,6.43,20.3,19.37,33.45,51.38,35,55.34,11,27.34,16.54,41.38,17.91,59.49,2,26.74-5.09,37.57-8,41.39-5.78,7.63-16.69,16.25-23.65,13.3-8.26-3.5-3.88-17-14.66-28-9.59-9.71-18.56-5.5-29.79-13.67-4.75-3.46-9.18-9.29-13.86-46.86C162.48,96.23,168.76,84,172.77,78Z" transform="translate(-21.96 -39.58)"/><path class="cls-1" d="M113.28,78c-2.14-3.17-10.08-15-20.62-14.73-6,.14-10.47,4.13-12.89,6.43-20.3,19.37-33.45,51.38-35,55.34-11,27.34-16.54,41.38-17.91,59.49-2,26.74,5.09,37.57,8,41.39,5.78,7.63,16.69,16.25,23.65,13.3,8.26-3.5,3.88-15.37,14.66-26.29,9.59-9.71,18.56-7.17,29.79-15.34,4.75-3.46,9.18-9.29,13.86-46.86C123.56,96.23,117.29,84,113.28,78Z" transform="translate(-21.96 -39.58)"/><rect class="cls-2" x="112.27" width="21.59" height="94.24" rx="6.48" ry="6.48"/><rect class="cls-2" x="193.11" y="149.44" width="34.29" height="5.24" rx="2.62" ry="2.62" transform="translate(-34.3 -20.87) rotate(-4.95)"/><rect class="cls-2" x="178.49" y="161.71" width="25.25" height="5.24" rx="2.62" ry="2.62" transform="translate(277.2 -102.98) rotate(74.69)"/><rect class="cls-2" x="168.09" y="114.43" width="10.73" height="55.09" rx="4.01" ry="4.01" transform="translate(-64.38 162.74) rotate(-54.92)"/><rect class="cls-2" x="176.08" y="135.87" width="25.25" height="5.24" rx="2.62" ry="2.62" transform="translate(-67.31 96.27) rotate(-35.63)"/><rect class="cls-2" x="62.91" y="150.16" width="34.29" height="5.24" rx="2.62" ry="2.62" transform="translate(124.66 272.32) rotate(-175.05)"/><rect class="cls-2" x="86.57" y="162.43" width="25.25" height="5.24" rx="2.62" ry="2.62" transform="translate(262.62 73.37) rotate(105.31)"/><rect class="cls-2" x="111.75" y="114.67" width="9.53" height="55.09" rx="4.01" ry="4.01" transform="translate(45.14 279.71) rotate(-125.08)"/><rect class="cls-2" x="88.98" y="136.59" width="25.25" height="5.24" rx="2.62" ry="2.62" transform="translate(81.14 271.97) rotate(-144.37)"/><rect class="cls-2" x="71.28" y="151.84" width="3.67" height="11.55" rx="1.83" ry="1.83" transform="translate(66.65 -55.03) rotate(30)"/><rect class="cls-2" x="210.03" y="151.71" width="3.67" height="11.55" rx="1.83" ry="1.83" transform="translate(452.14 148.35) rotate(150)"/></svg>