<svg id="Layer_1" data-name="Layer 1" xmlns="http://www.w3.org/2000/svg" viewBox="0 0 214.09 101.18"><defs><style>.cls-1,.cls-4{fill:#fff;}.cls-1{stroke:#58595b;stroke-linecap:round;stroke-linejoin:round;stroke-width:6px;}.cls-2{fill:#919191;}.cls-3{fill:#58595b;}</style></defs><title>eye_transparent</title><path class="cls-1" d="M49,148.72l0.11-.09c4-3.17,10.64-4.14,14.51-6.9,73.93-52.74,122.14-34.35,187.1,5.57-44,19.42-65.12,43.56-108.06,44.53-48.05,1.08-43.53-15.5-91.11-30A7.55,7.55,0,0,1,49,148.72Z" transform="translate(-41.11 -95.7)"/><path class="cls-2" d="M142.58,190.33a102,102,0,0,0,27.19-4.23,44.64,44.64,0,1,0-60.44.73C118,189.31,128.2,190.65,142.58,190.33Z" transform="translate(-41.11 -95.7)"/><path class="cls-3" d="M138.36,196.88c-26.9,0-37.39-6-50.49-13.53-9-5.19-19.28-11.06-37.82-16.7a12.55,12.55,0,0,1-4.2-21.84h0l0.13-.11a33.51,33.51,0,0,1,8.34-4.24c1.07-.42,2.63-1,3.28-1.41,62.34-78,133.18-34.42,195.69,4a3.43,3.43,0,0,1,1,1.13,5.82,5.82,0,0,1-.46,6.73,3.43,3.43,0,0,1-1.18,1c-14.44,6.37-26.21,13.17-37.59,19.74-22.8,13.17-42.49,24.54-72.38,25.21Q140.47,196.88,138.36,196.88Zm12.78-82.27c-27.09,0-64.51,4-86,31-1.51,1.9-4,2.89-7.14,4.13a28,28,0,0,0-5.84,2.8l-0.11.08h0a2.43,2.43,0,0,0-.91,2.45,2.54,2.54,0,0,0,1.8,2,173.56,173.56,0,0,1,39.89,17.59c13.41,7.69,22.26,12.78,49.66,12.16S187.61,176,210.11,163c8.89-5.13,18.74-10.82,30-16.27C211.33,137.87,197.78,124.23,167,116,161.67,114.57,156.28,114.61,151.14,114.61ZM49,148.72h0Z" transform="translate(-41.11 -95.7)"/><circle cx="98.05" cy="59.55" r="17.38"/><path class="cls-4" d="M174.89,138.05c0.43,7.47-4.93,13.89-12,14.34s-13.09-5.23-13.51-12.7,4.93-13.89,12-14.34S174.47,130.59,174.89,138.05Z" transform="translate(-41.11 -95.7)"/><circle class="cls-4" cx="71.27" cy="74.68" r="4.88"/></svg>