<?xml version="1.0" encoding="UTF-8" standalone="no"?>
<svg viewBox="0 0 771.12946 701.82947" xmlns="http://www.w3.org/2000/svg">
<defs>
<filter height="1.24207" id="filter4037" width="1.07977" x="-.03989" y="-.12104">
<feGaussianBlur stdDeviation="11.8688"/>
</filter>
</defs>
<g transform="translate(-68.72099,-58.59375)">
<path d="m169.86033,507.86716c-20.78502,77.1312-51.79858,144.49513-72.65434,221.60543 2.10154,4.6742 8.86669,1.0502 12.71875,2.1875 233.25411-.083 466.55867.1667 699.78125-.125 4.2968-2.5855-1.12118-8.655-1.00772-12.491-20.2387-74.1483-48.45115-142.53583-68.69827-216.68193-196.02083,0-373.71259,4.0362-569.73342,4.0362l-.26658.9638z" filter="url(#filter4037)"/>
<path d="m746.44706,498.58479 62.933,230.6361c.0643.2358-.23656.4411-.53041.4411h-708.93917c-.29385,0-.59221-.2046-.53041-.4411l62.067-230.6361z" fill="#dcd3ba"/>
<path d="m726.72747,727.44669c0-1.1136-3.32174-4.2151-5.06705-4.7311-2.31881-.6855-9.21866-4.8201-9.21866-5.5241 0-.3098-.40179-.5771-.89286-.5938-2.65633-.091-10.23607-9.2779-11.92188-14.4504-.64973-1.9935-1.59891-3.0627-3.64623-4.1071-1.52231-.7766-3.26886-1.4121-3.88122-1.4121s-2.79481-.8905-4.84989-1.979-5.66507-2.5678-8.02221-3.2874c-6.71481-2.0498-10.02246-3.9058-14.70149-8.2492-3.34375-3.1039-4.6508-4.927-5.68932-7.9356-.74155-2.1483-1.35876-4.4202-1.37158-5.0487s-.94749-2.4186-2.07702-3.9779-2.27619-3.5361-2.54813-4.3929-.79421-1.5578-1.1606-1.5578-.66615-.631-.66615-1.4021c0-1.9039-6.75572-8.343-10.71428-10.2121-1.76786-.8347-3.47133-1.938-3.78549-2.4518s-1.7606-.9343-3.21429-.9345c-4.63301-.0009-20.85736-4.9085-20.85736-6.309 0-.3169-.95919-1.6505-2.13153-2.9636s-2.3386-3.0398-2.59168-3.8372-1.70462-3.4831-3.22562-5.9681c-2.68168-4.3813-2.76579-4.718-2.77622-11.1128-.01-6.0881-.73063-9.7693-2.50335-12.7861-.3851-.6554-3.2716-2.4385-6.41446-3.9625s-6.62291-3.3712-7.73344-4.105c-1.68823-1.1156-4.08813-1.4192-14.64286-1.8523-13.35818-.5482-19.64442-1.8523-23.82391-4.9423-1.07593-.7955-2.22611-1.4463-2.55595-1.4463s-1.00652-1.125-1.50373-2.5-1.36535-2.5-1.9292-2.5-1.0252-.3147-1.0252-.6993c0-.9196-7.80268-8.5865-8.73862-8.5865-.61877,0-8.47087-3.756-13.04709-6.2409-.78572-.4267-3.35714-1.1475-5.71429-1.6018-4.77212-.9197-10.31836-3.3679-10.86668-4.7968-.19667-.5126-.72498-.9319-1.17402-.9319-1.40136,0-4.496-4.5161-5.02373-7.3312-.27717-1.4785-.52833-7.8783-.55812-14.2216-.0534-11.3664-.0832-11.5791-2.05724-14.6919-1.10169-1.7372-3.39228-4.5684-5.09021-6.2916s-4.61551-4.7108-6.48352-6.6392-4.83492-4.8322-6.59314-6.4529l-2.79089-3.8435h275l31.0933,115.1862c16.88026,62.5335 29.83943,114.0089 29.86142,114.1071s-18.12074.1786-40.31717.1786-40.35714-.2745-40.35714-.61z" fill="#89d375" opacity=".4856"/>
<path d="m589.44706,498.58479h45l9.93301,231.0772h-65z" fill="#f7fd9f"/>
<g fill="#fff" transform="translate(105.01849,-618.77743)">
<path d="m676.42857,1242.3622 10,40h-589.99999l10-35z" fill="#fff"/>
<path d="m116.42857,1117.3622h40l-36.067,165.0772h-49.99999z" fill="#fff"/>
</g>
<path d="m746.44706,498.58479 62.933,230.6361c.0643.2358-.23656.4411-.53041.4411h-708.93917c-.29385,0-.59221-.2046-.53041-.4411l62.067-230.6361z" fill="none" opacity=".8" stroke="#000" stroke-width="10"/>
<path d="m452.08461,63.78538c-99.48406,0-179.8125,80.4099-179.8125,179.59371 0,31.1863 7.96877,60.5277 21.9375,86.0938l157.875,264.3125 157.875-264.3125c13.96875-25.5661 21.9375-54.9075 21.9375-86.0938 0-99.18381-80.32844-179.59371-179.8125-179.59371zm-2,104.37499c.6674-.0169 1.32852,0 2,0 42.97468,0 77.8125,34.83782 77.8125,77.81252s-34.83782,77.8125-77.8125,77.8125-77.8125-34.8378-77.8125-77.8125c0-42.3032 33.76601-76.74726 75.8125-77.81252z" fill="#e52626" stroke="#000" stroke-width="10.39709"/>
</g>
</svg>
