<?xml version="1.0" encoding="UTF-8" standalone="no"?>
<!-- Generator: Adobe Illustrator 15.0.2, SVG Export Plug-In . SVG Version: 6.00 Build 0)  -->

<svg
   xmlns:dc="http://purl.org/dc/elements/1.1/"
   xmlns:cc="http://creativecommons.org/ns#"
   xmlns:rdf="http://www.w3.org/1999/02/22-rdf-syntax-ns#"
   xmlns:svg="http://www.w3.org/2000/svg"
   xmlns="http://www.w3.org/2000/svg"
   xmlns:sodipodi="http://sodipodi.sourceforge.net/DTD/sodipodi-0.dtd"
   xmlns:inkscape="http://www.inkscape.org/namespaces/inkscape"
   version="1.1"
   id="Layer_1"
   x="0px"
   y="0px"
   width="512px"
   height="512px"
   viewBox="0 0 512 512"
   enable-background="new 0 0 512 512"
   xml:space="preserve"
   inkscape:version="0.48.5 r10040"
   sodipodi:docname="location.svg"><metadata
   id="metadata9"><rdf:RDF><cc:Work
       rdf:about=""><dc:format>image/svg+xml</dc:format><dc:type
         rdf:resource="http://purl.org/dc/dcmitype/StillImage" /><dc:title></dc:title></cc:Work></rdf:RDF></metadata><defs
   id="defs7" /><sodipodi:namedview
   pagecolor="#ffffff"
   bordercolor="#666666"
   borderopacity="1"
   objecttolerance="10"
   gridtolerance="10"
   guidetolerance="10"
   inkscape:pageopacity="0"
   inkscape:pageshadow="2"
   inkscape:window-width="1366"
   inkscape:window-height="705"
   id="namedview5"
   showgrid="false"
   inkscape:zoom="0.4609375"
   inkscape:cx="256"
   inkscape:cy="256"
   inkscape:window-x="-8"
   inkscape:window-y="-8"
   inkscape:window-maximized="1"
   inkscape:current-layer="Layer_1" />
<path
   d="m 15.186441,9.6640932 c -3.051051,0 -5.5223478,2.4712968 -5.5223478,5.5223478 0,3.051051 2.4712968,5.522347 5.5223478,5.522347 3.051051,0 5.522347,-2.471296 5.522347,-5.522347 0,-3.051051 -2.471296,-5.5223478 -5.522347,-5.5223478 z M 27.528805,13.805898 C 26.893822,8.0489322 22.324008,3.4791186 16.567042,2.8441356 V 0 H 13.805898 V 2.8440763 C 8.0489322,3.4790593 3.4791186,8.0488729 2.8441356,13.805839 H 0 v 2.761144 h 2.8440763 c 0.634983,5.756966 5.2047966,10.32678 10.9617627,10.961763 v 2.844135 h 2.761144 v -2.844076 c 5.756966,-0.634983 10.32678,-5.204797 10.961763,-10.961763 h 2.844135 V 13.805898 H 27.528805 z M 15.186441,24.850534 c -5.3359579,0 -9.6640935,-4.327839 -9.6640935,-9.664093 0,-5.3359579 4.3281356,-9.6640935 9.6640935,-9.6640935 5.336254,0 9.664093,4.3281356 9.664093,9.6640935 0,5.336254 -4.327839,9.664093 -9.664093,9.664093 z"
   id="path3"
   inkscape:connector-curvature="0"
   style="fill:#000000" />
</svg>