<svg id="Layer_1" data-name="Layer 1" xmlns="http://www.w3.org/2000/svg" viewBox="0 0 108.47 216.06"><defs><style>.cls-1{fill:#b2d99f;}.cls-2{fill:#545454;}.cls-3{fill:#383838;}.cls-4{fill:#fff;}</style></defs><title>squar_nose5</title><path class="cls-1" d="M120.88,230.44a48.71,48.71,0,0,0,4.22-9.56c1.49-5.52.18-11.27-.79-17.1a0.43,0.43,0,0,1,.43-0.5l1.38,0c7.1,0.06,14.21.37,21.3,0.12,8.76-.31,16.53-3.34,22-11.36a27.48,27.48,0,0,0,4.46-13.65c0.82-10.26-1.46-19.69-7.27-27.75-5.29-7.35-12.7-10.27-21.17-9.9-7.93.34-1.55,2.13,5,3.78,7.41,1.86,12.52,6.67,15.19,14.5,2.23,6.53,3.2,13.16,1.84,20.1a17.66,17.66,0,0,1-6.78,10.81c-5.29,4.16-11.25,4.65-17.47,3.88-8.66-1.06-16.57-4.52-24.34-8.63A71.46,71.46,0,0,0,106.42,180a13,13,0,0,0-7.2.1c-5.07,1.53-7.61,4.61-6.56,10.49a0.43,0.43,0,0,1-.47.52,11.77,11.77,0,0,1-2-.32,35.84,35.84,0,0,1-6.64-2.17c-7.17-3.76-9.94-10.88-8.12-20.11a72.23,72.23,0,0,1,7.13-19.27c9.33-18,18.82-35.91,28.2-53.88a259.28,259.28,0,0,0,18.38-43.57c2.44-7.93,1.71-16.87,1.67-17.29a0.29,0.29,0,0,1,0,0c0-1.14,0-2.24,0-3.33,0-.12,0-0.24,0-0.36l-2,.21c-0.12,1-.23,2-0.38,3a88.66,88.66,0,0,1-4.3,19.08C119.11,67.35,112,80.45,104.54,93.36,94.9,110,85.21,126.69,75.86,143.57a130.24,130.24,0,0,0-7.36,16,41.58,41.58,0,0,0-2.62,19.84c1.35,11.43,6.91,17.86,16,20.45,9.31,2.65,18.81,3.12,28.4,3.35,0.79,0,1.58,0,2.38-.07a3.41,3.41,0,0,1,3.27,2,38.23,38.23,0,0,1,1.89,5,0.45,0.45,0,0,1,0,.12c0.07,3.12.43,5.7-.54,10.15a35.45,35.45,0,0,1-2.82,8.2c-1.25,2.53-9.54,9.16-10.19,9.59a34.43,34.43,0,0,1-9,3.05,8.56,8.56,0,0,0-1.85.45,110.48,110.48,0,0,0,12.7,5.19C112.52,242.87,117,237.46,120.88,230.44Z" transform="translate(-65.61 -30.79)"/><path class="cls-1" d="M123.43,196.21l3.54,1.15-20.77-7.65c-1.74-.64-3.72-1.27-5.37-0.43,0.24,1.45,1.84,2.2,3.26,2.58a26.39,26.39,0,0,0,8.07.87,1.67,1.67,0,0,0-2.3.47l9.26,2.26" transform="translate(-65.61 -30.79)"/><path class="cls-1" d="M123.43,198.71l3.54,1.15c-0.48-.15.55-4.8,0-5l-13.85-5.1c-3.7-1.36-8.3-4.14-12.3-3a26.66,26.66,0,0,0,0,5c1.59,3.73,7.92,3.51,11.33,3.45-0.12,0,.27-4.91,0-5a1.82,1.82,0,0,0-2.3.47c-0.27.24,0,5,0,5l9.26,2.26c-0.35-.08.42-4.9,0-5l-9.26-2.26v5a1.82,1.82,0,0,1,2.3-.47v-5c-3.43.05-9.72,0.31-11.33-3.45v5c4-1.16,8.6,1.62,12.3,3l13.85,5.1v-5l-3.54-1.15c0.46,0.15-.52,4.83,0,5h0Z" transform="translate(-65.61 -30.79)"/><path class="cls-1" d="M110.24,104.28a412.75,412.75,0,0,0-24.08,39.4c-4.77,8.88-9.31,18.36-9.24,28.43" transform="translate(-65.61 -30.79)"/><path class="cls-1" d="M110.24,101.78q-11.52,16.75-21.43,34.53C83,146.85,77.14,157.63,76.91,170c0,1.14,0,2.28,0,3.42,0,0.23,0,1.79,0,.9,0.25-13.19,7.37-25,13.68-36.18q9.11-16.09,19.62-31.31c0.79-1.15-.77-3.89,0-5h0Z" transform="translate(-65.61 -30.79)"/><path class="cls-1" d="M136,154.07l7,3" transform="translate(-65.61 -30.79)"/><path class="cls-1" d="M136,156.57l7,3a18.19,18.19,0,0,1,0-2.5,10.1,10.1,0,0,0,0-2.5l-7-3a18.19,18.19,0,0,1,0,2.5,10.1,10.1,0,0,0,0,2.5h0Z" transform="translate(-65.61 -30.79)"/><path class="cls-2" d="M120.88,230.44a48.71,48.71,0,0,0,4.22-9.56c1.49-5.52.18-11.27-.79-17.1a0.43,0.43,0,0,1,.43-0.5l1.38,0c7.1,0.06,14.21.37,21.3,0.12,8.76-.31,16.53-3.34,22-11.36a27.48,27.48,0,0,0,4.46-13.65c0.82-10.26-1.46-19.69-7.27-27.75-5.29-7.35-12.7-10.27-21.17-9.9-7.93.34-1.55,2.13,5,3.78,7.41,1.86,12.52,6.67,15.19,14.5,2.23,6.53,3.2,13.16,1.84,20.1a17.66,17.66,0,0,1-6.78,10.81c-5.29,4.16-11.25,4.65-17.47,3.88-8.66-1.06-16.57-4.52-24.34-8.63A71.46,71.46,0,0,0,106.42,180a13,13,0,0,0-7.2.1c-5.07,1.53-7.61,4.61-6.56,10.49a0.43,0.43,0,0,1-.47.52,11.77,11.77,0,0,1-2-.32,35.84,35.84,0,0,1-6.64-2.17c-7.17-3.76-9.94-10.88-8.12-20.11a72.23,72.23,0,0,1,7.13-19.27c9.33-18,18.82-35.91,28.2-53.88a259.28,259.28,0,0,0,18.38-43.57c2.44-7.93,1.71-16.87,1.67-17.29a0.29,0.29,0,0,1,0,0c0-1.14,0-2.24,0-3.33,0-.12,0-0.24,0-0.36l-2,.21c-0.12,1-.23,2-0.38,3a88.66,88.66,0,0,1-4.3,19.08C119.11,67.35,112,80.45,104.54,93.36,94.9,110,85.21,126.69,75.86,143.57a130.24,130.24,0,0,0-7.36,16,41.58,41.58,0,0,0-2.62,19.84c1.35,11.43,6.91,17.86,16,20.45,9.31,2.65,18.81,3.12,28.4,3.35,0.79,0,1.58,0,2.38-.07a3.41,3.41,0,0,1,3.27,2,38.23,38.23,0,0,1,1.89,5,0.45,0.45,0,0,1,0,.12c0.07,3.12.43,5.7-.54,10.15a35.45,35.45,0,0,1-2.82,8.2c-1.25,2.53-9.54,9.16-10.19,9.59a34.43,34.43,0,0,1-9,3.05,8.56,8.56,0,0,0-1.85.45,110.48,110.48,0,0,0,12.7,5.19C112.52,242.87,117,237.46,120.88,230.44Z" transform="translate(-65.61 -30.79)"/><path class="cls-3" d="M123.43,198.71l3.54,1.15c-0.48-.15.55-4.8,0-5l-13.85-5.1c-3.7-1.36-8.3-4.14-12.3-3a26.66,26.66,0,0,0,0,5c1.59,3.73,7.92,3.51,11.33,3.45-0.12,0,.27-4.91,0-5a1.82,1.82,0,0,0-2.3.47c-0.27.24,0,5,0,5l9.26,2.26c-0.35-.08.42-4.9,0-5l-9.26-2.26v5a1.82,1.82,0,0,1,2.3-.47v-5c-3.43.05-9.72,0.31-11.33-3.45v5c4-1.16,8.6,1.62,12.3,3l13.85,5.1v-5l-3.54-1.15c0.46,0.15-.52,4.83,0,5h0Z" transform="translate(-65.61 -30.79)"/><path class="cls-4" d="M110.24,104.28a412.75,412.75,0,0,0-24.08,39.4c-4.77,8.88-9.31,18.36-9.24,28.43" transform="translate(-65.61 -30.79)"/><path class="cls-4" d="M110.24,101.78q-11.52,16.75-21.43,34.53C83,146.85,77.14,157.63,76.91,170c0,1.14,0,2.28,0,3.42,0,0.23,0,1.79,0,.9,0.25-13.19,7.37-25,13.68-36.18q9.11-16.09,19.62-31.31c0.79-1.15-.77-3.89,0-5h0Z" transform="translate(-65.61 -30.79)"/><path class="cls-4" d="M136,156.57l7,3a18.19,18.19,0,0,1,0-2.5,10.1,10.1,0,0,0,0-2.5l-7-3a18.19,18.19,0,0,1,0,2.5,10.1,10.1,0,0,0,0,2.5h0Z" transform="translate(-65.61 -30.79)"/></svg>